<?xml version="1.0" standalone="no"?>
<!DOCTYPE svg PUBLIC "-//W3C//DTD SVG 20010904//EN"
 "http://www.w3.org/TR/2001/REC-SVG-20010904/DTD/svg10.dtd">
<svg version="1.0" xmlns="http://www.w3.org/2000/svg"
 width="1280.000000pt" height="1280.000000pt" viewBox="0 0 1280.000000 1280.000000"
 preserveAspectRatio="xMidYMid meet">
<g transform="translate(0.000000,1280.000000) scale(0.100000,-0.100000)"
fill="#000000" stroke="none">
<path d="M4200 11740 c-290 -38 -528 -247 -612 -535 l-23 -80 0 -4715 c0
-4531 1 -4718 18 -4793 60 -256 261 -463 522 -539 l80 -23 2215 0 2215 0 80
23 c261 76 462 283 522 539 17 75 18 262 18 4783 0 4521 -1 4708 -18 4783 -60
254 -256 458 -517 539 l-75 23 -2185 1 c-1202 1 -2210 -2 -2240 -6z m2694
-692 c23 -32 20 -94 -4 -118 -19 -19 -33 -20 -490 -20 -457 0 -471 1 -490 20
-24 24 -27 86 -4 118 l15 22 479 0 479 0 15 -22z m1851 -4648 l0 -3815 -2345
0 -2345 0 -3 3805 c-1 2093 0 3811 3 3818 3 10 478 12 2347 10 l2343 -3 0
-3815z m-2281 -4130 c200 -29 365 -191 397 -391 35 -213 -92 -429 -299 -510
-82 -33 -242 -33 -324 0 -207 81 -334 297 -299 510 32 195 198 362 388 390 32
5 60 9 63 10 3 0 36 -4 74 -9z"/>
</g>
</svg>
